<svg xmlns:xlink="http://www.w3.org/1999/xlink" xmlns="http://www.w3.org/2000/svg" fill="none" stroke-linecap="square" stroke-miterlimit="10" viewBox="0 0 960 960">
  <defs>
    <linearGradient id="a">
      <stop offset="0" stop-color="#8e7cc3"/>
      <stop offset="1" stop-color="#3d306c"/>
    </linearGradient>
    <linearGradient xlink:href="#a" id="b" x1="480" y1="0" x2="480" y2="958" gradientUnits="userSpaceOnUse"/>
  </defs>
  <path fill="url(#b)" d="M0 0h960v960H0Z" fill-rule="evenodd"/>
  <g fill="#f9f8fc" fill-opacity=".747159" fill-rule="evenodd">
    <path d="M-23.229767 847.5381 285.76236 683.09712 76.959203 913.55385ZM-110.18363 711.15576l366.7559-59.96851-309.9685 151.24408zM-134.12881 531.2673l360.92914 88.55115-344.4567 17.68506zM983.29376 847.5381 674.30163 683.09712l208.80316 230.45673ZM1070.2477 711.15576l-366.75592-59.96851 309.96852 151.24408ZM1094.1929 531.2673l-360.9292 88.55115 344.4567 17.68506zM202.56 423.8719c0 22.91666 8.04152 42.84723 24.12457 59.79166 16.08304 16.80557 36.28995 25.20834 60.62073 25.20834 22.68121 0 42.26953-8.33334 58.76498-25 16.49543-16.66666 24.74314-36.66666 24.74314-60v-22.5c0-22.91669-8.0415-42.7778-24.12457-59.58334-16.08304-16.94446-36.28995-25.41666-60.6207-25.41666-22.68124 0-42.26956 8.33331-58.765 25-16.49544 16.66666-24.74315 36.66666-24.74315 60zm386.61176 0c0 22.91666 8.0415 42.84723 24.12457 59.79166 16.08307 16.80557 36.08374 25.20834 60.00214 25.20834 23.09363 0 42.81933-8.33334 59.17737-25 16.22046-16.66666 24.33075-36.66666 24.33075-60v-22.5c0-22.91669-8.04151-42.7778-24.12457-59.58334-16.08301-16.94446-36.08374-25.41666-60.00214-25.41666-23.09357 0-42.75067 8.33331-58.97119 25-16.35797 16.66666-24.53693 36.66666-24.53693 60zM415.03937 583.8793 480 642.08401l64.96063-58.20471Z"/>
  </g>
</svg>